<mxfile host="app.diagrams.net" agent="Mozilla/5.0 (Windows NT 10.0; Win64; x64) AppleWebKit/537.36 (KHTML, like Gecko) Chrome/137.0.0.0 Safari/537.36" version="27.1.3">
  <diagram name="Trang-1" id="TPHRvgBpAuqD9EmlDR-H">
    <mxGraphModel dx="1042" dy="570" grid="1" gridSize="10" guides="1" tooltips="1" connect="1" arrows="1" fold="1" page="1" pageScale="1" pageWidth="827" pageHeight="1169" math="0" shadow="0">
      <root>
        <mxCell id="0" />
        <mxCell id="1" parent="0" />
        <mxCell id="STvvnLIza6-3XT-6ts2b-1" value="&lt;font style=&quot;font-size: 20px;&quot;&gt;CRM&lt;/font&gt;" style="ellipse;whiteSpace=wrap;html=1;fontFamily=Times New Roman;fillColor=#ffe6cc;strokeColor=#d79b00;" vertex="1" parent="1">
          <mxGeometry x="110" y="80" width="120" height="80" as="geometry" />
        </mxCell>
        <mxCell id="STvvnLIza6-3XT-6ts2b-2" value="&lt;font style=&quot;font-size: 20px;&quot;&gt;API&lt;/font&gt;" style="ellipse;whiteSpace=wrap;html=1;fontFamily=Times New Roman;fillColor=#ffe6cc;strokeColor=#d79b00;" vertex="1" parent="1">
          <mxGeometry x="110" y="280" width="120" height="80" as="geometry" />
        </mxCell>
        <mxCell id="STvvnLIza6-3XT-6ts2b-4" value="WEB APP" style="ellipse;whiteSpace=wrap;html=1;fontFamily=Times New Roman;fillColor=#ffe6cc;strokeColor=#d79b00;fontSize=20;" vertex="1" parent="1">
          <mxGeometry x="110" y="180" width="120" height="80" as="geometry" />
        </mxCell>
        <mxCell id="STvvnLIza6-3XT-6ts2b-5" value="" style="shape=curlyBracket;whiteSpace=wrap;html=1;rounded=1;flipH=1;labelPosition=right;verticalLabelPosition=middle;align=left;verticalAlign=middle;" vertex="1" parent="1">
          <mxGeometry x="250" y="115" width="40" height="210" as="geometry" />
        </mxCell>
        <mxCell id="STvvnLIza6-3XT-6ts2b-6" value="" style="endArrow=classic;html=1;rounded=0;" edge="1" parent="1">
          <mxGeometry width="50" height="50" relative="1" as="geometry">
            <mxPoint x="280" y="219.5" as="sourcePoint" />
            <mxPoint x="330" y="220" as="targetPoint" />
          </mxGeometry>
        </mxCell>
        <mxCell id="STvvnLIza6-3XT-6ts2b-7" value="ETL/ELT&lt;div&gt;Pipeline&lt;/div&gt;" style="rounded=1;whiteSpace=wrap;html=1;fillColor=#dae8fc;strokeColor=#6c8ebf;fontSize=20;" vertex="1" parent="1">
          <mxGeometry x="340" y="50" width="130" height="70" as="geometry" />
        </mxCell>
        <mxCell id="STvvnLIza6-3XT-6ts2b-8" value="Data Lake" style="rounded=1;whiteSpace=wrap;html=1;fillColor=#dae8fc;strokeColor=#6c8ebf;fontSize=20;" vertex="1" parent="1">
          <mxGeometry x="340" y="170" width="130" height="70" as="geometry" />
        </mxCell>
        <mxCell id="STvvnLIza6-3XT-6ts2b-9" value="Data Warehouse" style="rounded=1;whiteSpace=wrap;html=1;fillColor=#dae8fc;strokeColor=#6c8ebf;fontSize=20;" vertex="1" parent="1">
          <mxGeometry x="340" y="290" width="130" height="70" as="geometry" />
        </mxCell>
        <mxCell id="STvvnLIza6-3XT-6ts2b-10" value="" style="endArrow=classic;html=1;rounded=0;" edge="1" parent="1">
          <mxGeometry width="50" height="50" relative="1" as="geometry">
            <mxPoint x="404.5" y="120" as="sourcePoint" />
            <mxPoint x="404.5" y="165" as="targetPoint" />
          </mxGeometry>
        </mxCell>
        <mxCell id="STvvnLIza6-3XT-6ts2b-13" value="" style="endArrow=classic;html=1;rounded=0;" edge="1" parent="1">
          <mxGeometry width="50" height="50" relative="1" as="geometry">
            <mxPoint x="404.5" y="240" as="sourcePoint" />
            <mxPoint x="404.5" y="285" as="targetPoint" />
          </mxGeometry>
        </mxCell>
        <mxCell id="STvvnLIza6-3XT-6ts2b-14" value="" style="endArrow=classic;html=1;rounded=0;" edge="1" parent="1">
          <mxGeometry width="50" height="50" relative="1" as="geometry">
            <mxPoint x="490" y="210" as="sourcePoint" />
            <mxPoint x="590" y="210" as="targetPoint" />
          </mxGeometry>
        </mxCell>
        <mxCell id="STvvnLIza6-3XT-6ts2b-16" value="BI Tool" style="rounded=1;whiteSpace=wrap;html=1;fillColor=#d5e8d4;strokeColor=#51B35C;fontSize=20;" vertex="1" parent="1">
          <mxGeometry x="610" y="170" width="130" height="70" as="geometry" />
        </mxCell>
      </root>
    </mxGraphModel>
  </diagram>
</mxfile>
